# xmcd CD database file
# Copyright (C) 1993-1996 Ti Kan
#
# Track frame offsets:
#	182
#	12645
#	22870
#	33312
#	50520
#	61867
#	72667
#	82792
#	95590
#	109395
#	120047
#	130980
#	142690
#	157200
#	166525
#	180275
#	194422
#	206252
#	218147
#	232707
#	246222
#	255355
#	268057
#	283780
#	296105
#
# Disc length: 4110 seconds
#
# Revision: 1
# Processed by: cddbd v1.4b41PL1 Copyright (c) Steve Scherf et al.
# Submitted via: EasyCD2 v3.00 - Copyright (c) 1997 Greg Leichner
#
DISCID=57100c19
DTITLE=Charlie Pride - Legendary Country Series  Charlie Pride
DYEAR=1900
DGENRE=
TTITLE0=The Snakes Crawl At Night
TTITLE1=Just Between You And Me
TTITLE2=Does My Ring Hurt Your Finger
TTITLE3=(I'm So) Afraid Of Losing You Again
TTITLE4=The Day The World Stood Still
TTITLE5=The Easy Part's Over
TTITLE6=Is Anybody Going To San Antone
TTITLE7=Crystal Chandelier
TTITLE8=All I Have To Offer You (Is Me)
TTITLE9=I'm Just Me
TTITLE10=Mississippi Cotton Picking Delta Town
TTITLE11=Wonder Could I Live There Anymore
TTITLE12=Kaw-Liga
TTITLE13=Kiss An Angel Good Mornin'
TTITLE14=Hope You're Feelin' Me (Like I'm Feelin' You)
TTITLE15=I Can't Believe That You've Stopped Loving Me
TTITLE16=It's Gonna Take A Little Bit Longer
TTITLE17=She's Just An Old Love Turned Memory
TTITLE18=Burgers And Fries
TTITLE19=Where Do I Put Her Menory
TTITLE20=Honky Tonk Blues
TTITLE21=Mountain Of Love
TTITLE22=You're So Good When You're So Bad
TTITLE23=Night Games
TTITLE24=Cotton Fields
EXTD=
EXTT0=
EXTT1=
EXTT2=
EXTT3=
EXTT4=
EXTT5=
EXTT6=
EXTT7=
EXTT8=
EXTT9=
EXTT10=
EXTT11=
EXTT12=
EXTT13=
EXTT14=
EXTT15=
EXTT16=
EXTT17=
EXTT18=
EXTT19=
EXTT20=
EXTT21=
EXTT22=
EXTT23=
EXTT24=
PLAYORDER=
